<?xml version="1.0" encoding="UTF-8"?>
<!DOCTYPE svg PUBLIC "-//W3C//DTD SVG 1.1//EN" "http://www.w3.org/Graphics/SVG/1.1/DTD/svg11.dtd">
<!-- Creator: CorelDRAW X7 -->
<svg xmlns="http://www.w3.org/2000/svg" xml:space="preserve" width="95.4138mm" height="10.1383mm" version="1.1" style="shape-rendering:geometricPrecision; text-rendering:geometricPrecision; image-rendering:optimizeQuality; fill-rule:evenodd; clip-rule:evenodd"
viewBox="0 0 10078 1071"
 xmlns:xlink="http://www.w3.org/1999/xlink">
 <defs>
  <style type="text/css">
   <![CDATA[
    .str0 {stroke:#2C323E;stroke-width:105.621}
    .fil1 {fill:#D2D3D5;fill-rule:nonzero}
    .fil0 {fill:#2C323E;fill-rule:nonzero}
    .fil2 {fill:#2C323E;fill-rule:nonzero}
   ]]>
  </style>
 </defs>
 <g id="Capa_x0020_1">
  <metadata id="CorelCorpID_0Corel-Layer"/>
  <path class="fil0" d="M4837 686l133 37c-27,112 -80,197 -154,255 -75,58 -165,85 -271,85 -111,0 -202,-21 -270,-64 -69,-48 -123,-111 -160,-196 -37,-85 -53,-181 -53,-276 0,-111 21,-202 64,-281 37,-80 95,-144 175,-186 74,-37 154,-58 249,-58 101,0 186,26 260,79 69,48 117,122 144,218l-133 32c-27,-75 -58,-128 -106,-165 -43,-32 -101,-48 -170,-48 -79,0 -143,16 -196,53 -53,43 -90,91 -112,154 -21,64 -31,133 -31,202 0,85 10,159 37,228 26,64 63,112 116,143 53,32 112,53 176,53 74,0 143,-26 191,-69 53,-42 90,-111 111,-196l0 0z"/>
  <path class="fil0" d="M4980 548c0,-170 48,-308 138,-403 90,-96 212,-143 355,-143 96,0 181,21 260,69 75,42 133,106 176,185 37,85 58,175 58,276 0,106 -21,202 -64,281 -42,85 -101,149 -180,191 -74,43 -159,59 -250,59 -95,0 -185,-21 -259,-69 -75,-48 -133,-112 -176,-191 -37,-80 -58,-165 -58,-255zm143 0c0,128 32,223 101,292 64,74 149,111 249,111 101,0 186,-37 255,-111 64,-69 96,-175 96,-308 0,-79 -11,-154 -43,-217 -26,-64 -69,-112 -122,-144 -53,-37 -117,-53 -186,-53 -95,0 -180,32 -249,101 -69,64 -101,175 -101,329l0 0z"/>
  <polygon class="fil0" points="5999,1047 5999,18 6137,18 6678,824 6678,18 6811,18 6811,1047 6673,1047 6131,240 6131,1047 "/>
  <polygon class="fil0" points="7654,12 6853,12 6853,182 7134,182 7134,1047 7373,1047 7373,182 7654,182 "/>
  <path class="fil0" d="M7925 654c37,6 85,6 122,6l207 387 233 0 -228 -409c117,-37 191,-122 191,-307 0,-276 -180,-324 -403,-324 -117,0 -239,16 -324,32l0 1008 202 0 0 -393 0 0zm0 -472c42,-5 90,-11 127,-11 149,0 196,48 196,160 0,132 -74,164 -196,164 -42,0 -85,0 -127,-5l0 -308z"/>
  <path class="fil0" d="M10078 882l-266 0c-116,0 -138,-26 -138,-143l0 -721 -207 0 0 780c0,244 170,254 351,254 63,0 185,-5 260,-10l0 -160 0 0z"/>
  <path class="fil1" d="M901 9l-240 0 0 705c0,122 -56,174 -208,174 -157,0 -214,-52 -214,-174l0 -705 -239 0 0 692c0,287 178,361 453,361 274,0 448,-74 448,-361l0 -692z"/>
  <path id="_1" class="fil1" d="M1554 170c91,0 187,13 265,26l22 -161c-87,-18 -218,-35 -344,-35 -278,0 -431,74 -431,296 0,200 126,257 344,313 109,31 200,52 200,148 0,105 -78,131 -204,131 -96,0 -231,-13 -318,-22l-22 165c96,18 209,31 348,31 283,0 444,-83 444,-309 0,-192 -100,-270 -326,-322 -139,-31 -222,-48 -222,-152 0,-105 148,-109 244,-109l0 0z"/>
  <path id="_2" class="fil1" d="M2808 13c-83,0 -239,-4 -326,-4 -218,0 -418,8 -418,252l0 540c0,243 200,256 418,256 82,0 243,-4 326,-8l0 -166 -331 0c-143,0 -169,-26 -169,-139l0 -135 478 0 0 -169 -478 0 0 -118c0,-117 26,-144 169,-144l331 0 0 -165 0 0z"/>
  <path id="_3" class="fil1" d="M3299 657c44,0 101,4 148,4l248 392 279 0 -274 -418c143,-34 230,-121 230,-309 0,-278 -217,-326 -483,-326 -143,0 -287,13 -387,30l0 1023 239 0 0 -396 0 0zm0 -483c53,-4 109,-9 157,-9 174,0 235,48 235,161 0,135 -91,166 -239,166 -52,0 -100,0 -153,-5l0 -313z"/>
  <path class="fil2 str0" d="M8578 552c0,-154 37,-279 107,-366 70,-86 164,-130 275,-130 74,0 140,20 202,63 57,38 102,96 135,168 29,77 46,159 46,250 0,96 -17,183 -50,255 -33,77 -78,135 -140,173 -57,39 -123,53 -193,53 -74,0 -144,-19 -201,-63 -58,-43 -103,-100 -136,-173 -29,-72 -45,-149 -45,-230zm111 0c0,115 25,202 78,264 49,67 115,101 193,101 78,0 144,-34 198,-101 49,-62 74,-159 74,-279 0,-72 -9,-139 -33,-197 -21,-58 -54,-101 -95,-130 -41,-33 -90,-48 -144,-48 -74,0 -139,29 -193,91 -53,58 -78,159 -78,299l0 0z"/>
 </g>
</svg>
