<?xml version="1.0" encoding="UTF-8"?>
<!DOCTYPE svg PUBLIC "-//W3C//DTD SVG 1.1//EN" "http://www.w3.org/Graphics/SVG/1.1/DTD/svg11.dtd">
<!-- Creator: CorelDRAW X7 -->
<svg xmlns="http://www.w3.org/2000/svg" xml:space="preserve" width="57.4695mm" height="23.9922mm" version="1.1" style="shape-rendering:geometricPrecision; text-rendering:geometricPrecision; image-rendering:optimizeQuality; fill-rule:evenodd; clip-rule:evenodd"
viewBox="0 0 1144 477"
 xmlns:xlink="http://www.w3.org/1999/xlink">
 <defs>
  <style type="text/css">
   <![CDATA[
    .fil1 {fill:#2994AC;fill-rule:nonzero}
    .fil0 {fill:#2C323E;fill-rule:nonzero}
   ]]>
  </style>
 </defs>
 <g id="Capa_x0020_1">
  <metadata id="CorelCorpID_0Corel-Layer"/>
  <path class="fil0" d="M146 406l25 7c-5,21 -15,37 -29,48 -14,11 -31,16 -51,16 -21,0 -38,-4 -51,-12 -13,-9 -23,-21 -30,-37 -7,-16 -10,-34 -10,-52 0,-21 4,-38 12,-53 7,-15 18,-27 33,-35 14,-7 29,-11 47,-11 19,0 35,5 49,15 13,9 22,23 27,41l-25 6c-5,-14 -11,-24 -20,-31 -8,-6 -19,-9 -32,-9 -15,0 -27,3 -37,10 -10,8 -17,17 -21,29 -4,12 -6,25 -6,38 0,16 2,30 7,43 5,12 12,21 22,27 10,6 21,10 33,10 14,0 27,-5 36,-13 10,-8 17,-21 21,-37z"/>
  <path class="fil0" d="M167 380c0,-32 9,-58 26,-76 17,-18 40,-27 67,-27 18,0 34,4 49,13 14,8 25,20 33,35 7,16 11,33 11,52 0,20 -4,38 -12,53 -8,16 -19,28 -34,36 -14,8 -30,11 -47,11 -18,0 -35,-4 -49,-13 -14,-9 -25,-21 -33,-36 -7,-15 -11,-31 -11,-48zm27 0c0,24 6,42 19,55 12,14 28,21 47,21 19,0 35,-7 48,-21 12,-13 18,-33 18,-58 0,-15 -2,-29 -8,-41 -5,-12 -13,-21 -23,-27 -10,-7 -22,-10 -35,-10 -18,0 -34,6 -47,19 -13,12 -19,33 -19,62z"/>
  <polygon class="fil0" points="357,474 357,280 383,280 485,432 485,280 510,280 510,474 484,474 382,322 382,474 "/>
  <polygon class="fil0" points="669,279 518,279 518,311 571,311 571,474 616,474 616,311 669,311 "/>
  <path class="fil0" d="M720 400c7,1 16,1 23,1l39 73 44 0 -43 -77c22,-7 36,-23 36,-58 0,-52 -34,-61 -76,-61 -22,0 -45,3 -61,6l0 190 38 0 0 -74zm0 -89c8,-1 17,-2 24,-2 28,0 37,9 37,30 0,25 -14,31 -37,31 -8,0 -16,0 -24,-1l0 -58z"/>
  <path class="fil0" d="M1144 443l-50 0c-22,0 -26,-5 -26,-27l0 -136 -39 0 0 147c0,46 32,48 66,48 12,0 35,-1 49,-2l0 -30z"/>
  <path class="fil1" d="M212 2l-55 0 0 162c0,28 -13,40 -48,40 -36,0 -49,-12 -49,-40l0 -162 -55 0 0 159c0,66 41,83 104,83 63,0 103,-17 103,-83l0 -159z"/>
  <path id="1" class="fil1" d="M419 39c21,0 43,3 61,6l5 -37c-20,-4 -50,-8 -79,-8 -64,0 -99,17 -99,68 0,46 29,59 79,72 25,7 46,12 46,34 0,24 -18,30 -47,30 -22,0 -53,-3 -73,-5l-5 38c22,4 48,7 80,7 65,0 102,-19 102,-71 0,-44 -23,-62 -75,-74 -32,-7 -51,-11 -51,-35 0,-24 34,-25 56,-25z"/>
  <path id="2" class="fil1" d="M754 3c-19,0 -55,-1 -75,-1 -50,0 -96,2 -96,58l0 124c0,56 46,59 96,59 19,0 56,-1 75,-2l0 -38 -76 0c-33,0 -39,-6 -39,-32l0 -31 110 0 0 -39 -110 0 0 -27c0,-27 6,-33 39,-33l76 0 0 -38z"/>
  <path id="3" class="fil1" d="M913 151c10,0 23,1 34,1l57 90 64 0 -63 -96c33,-8 53,-28 53,-71 0,-64 -50,-75 -111,-75 -33,0 -66,3 -89,7l0 235 55 0 0 -91zm0 -111c12,-1 25,-2 36,-2 40,0 54,11 54,37 0,31 -21,38 -55,38 -12,0 -23,0 -35,-1l0 -72z"/>
  <g id="_1998305663824">
   <path class="fil0" d="M1001 399l-10 -2c-4,0 -7,1 -8,4 -3,8 -8,15 -14,21 -2,3 -2,6 -1,9l6 9 -14 9 -6 -8c-1,-3 -5,-4 -8,-3 -8,3 -16,5 -25,5 -3,0 -6,3 -6,6l-2 10 -17 -3 2 -10c1,-4 -1,-7 -4,-8 -8,-3 -15,-8 -21,-14 -2,-2 -6,-2 -9,-1l-8 6 -10 -14 9 -6c2,-2 3,-5 2,-8 -3,-8 -5,-16 -5,-25 0,-3 -2,-6 -5,-6l-11 -2 3 -17 11 2c3,0 6,-1 7,-4 4,-8 8,-15 14,-21 2,-3 3,-6 1,-9l-6 -9 14 -9 6 8c2,3 5,4 8,3 8,-3 16,-5 25,-5 3,0 6,-3 7,-6l1 -10 17 3 -2 10c0,3 1,7 4,8 8,3 15,8 21,14 3,2 6,2 9,1l9 -6 9 14 -8 6c-3,2 -4,5 -3,8 3,8 5,16 5,25 0,3 3,6 6,6l10 2 -3 17zm12 -29l-11 -2c-1,-7 -2,-13 -4,-19l10 -7c3,-2 4,-6 1,-9l-17 -26c-1,-1 -2,-2 -4,-3 -2,0 -4,0 -5,1l-10 7c-5,-4 -10,-8 -16,-10l2 -12c1,-4 -2,-7 -5,-8l-31 -6c-1,0 -3,0 -5,1 -1,1 -2,3 -3,5l-2 11c-6,1 -13,2 -19,4l-6 -10c-1,-1 -3,-2 -5,-3 -2,0 -3,0 -5,1l-25 18c-2,1 -3,2 -3,4 -1,2 0,4 1,5l7 10c-5,5 -8,10 -11,16l-12 -2c-1,0 -3,0 -5,1 -1,1 -2,3 -3,4l-5 31c-1,3 1,7 5,8l12 2c0,6 2,13 4,19l-10 7c-2,1 -3,2 -3,4 0,2 0,4 1,5l17 26c1,1 3,2 5,2 1,1 3,0 5,-1l10 -6c4,4 10,7 16,10l-3 12c0,4 2,7 6,8l30 6c0,0 1,0 1,0 4,0 6,-2 7,-6l2 -11c7,-1 13,-2 19,-4l7 10c1,1 2,2 4,2 2,1 4,0 5,-1l26 -17c3,-2 4,-6 2,-9l-7 -10c4,-5 7,-11 10,-16l12 2c4,1 7,-2 8,-6l6 -30c0,-2 0,-4 -1,-5 -1,-2 -3,-3 -5,-3z"/>
   <path class="fil1" d="M955 382c-2,9 -7,17 -15,22 -8,6 -17,8 -26,6l0 0c-10,-2 -18,-7 -23,-15 -6,-8 -7,-17 -6,-27 2,-9 7,-17 15,-23 6,-4 13,-6 20,-6 2,0 5,1 7,1 19,4 32,22 28,42zm-26 -56c-13,-2 -26,1 -36,8 -11,8 -19,19 -21,32 -3,13 0,26 8,37 7,11 18,18 31,20l0 0c3,1 6,1 9,1 23,0 44,-16 48,-40 6,-27 -12,-52 -39,-58z"/>
  </g>
 </g>
</svg>
