<?xml version="1.0" encoding="UTF-8"?>
<!DOCTYPE svg PUBLIC "-//W3C//DTD SVG 1.1//EN" "http://www.w3.org/Graphics/SVG/1.1/DTD/svg11.dtd">
<!-- Creator: CorelDRAW X7 -->
<svg xmlns="http://www.w3.org/2000/svg" xml:space="preserve" width="57.4696mm" height="23.9624mm" version="1.1" style="shape-rendering:geometricPrecision; text-rendering:geometricPrecision; image-rendering:optimizeQuality; fill-rule:evenodd; clip-rule:evenodd"
viewBox="0 0 2401 1001"
 xmlns:xlink="http://www.w3.org/1999/xlink">
 <defs>
  <style type="text/css">
   <![CDATA[
    .fil1 {fill:#2994AC;fill-rule:nonzero}
    .fil0 {fill:#2C323E;fill-rule:nonzero}
   ]]>
  </style>
 </defs>
 <g id="Capa_x0020_1">
  <metadata id="CorelCorpID_0Corel-Layer"/>
  <path class="fil0" d="M306 852l53 15c-11,44 -32,77 -61,100 -29,24 -65,34 -107,34 -44,0 -80,-8 -107,-25 -27,-19 -48,-44 -63,-78 -15,-33 -21,-71 -21,-109 0,-44 8,-80 25,-111 15,-32 38,-57 69,-74 30,-14 61,-23 99,-23 40,0 74,11 103,32 27,19 46,48 57,86l-53 12c-10,-29 -23,-50 -42,-65 -17,-12 -40,-19 -67,-19 -32,0 -57,7 -78,21 -21,17 -35,36 -44,61 -8,25 -12,53 -12,80 0,34 4,63 14,90 11,25 26,44 47,57 21,13 44,21 69,21 29,0 56,-11 75,-27 21,-17 36,-44 44,-78l0 0z"/>
  <path class="fil0" d="M350 797c0,-67 19,-121 55,-159 36,-38 84,-57 141,-57 37,0 71,9 102,28 30,16 53,42 70,73 14,34 23,69 23,109 0,42 -9,80 -25,111 -17,34 -40,59 -72,76 -29,17 -63,23 -98,23 -38,0 -74,-8 -103,-27 -30,-19 -53,-44 -69,-76 -15,-31 -24,-65 -24,-101zm57 0c0,51 13,89 40,116 25,29 59,44 99,44 39,0 73,-15 100,-44 26,-27 38,-69 38,-122 0,-31 -4,-61 -17,-86 -10,-25 -27,-44 -48,-57 -21,-14 -46,-21 -73,-21 -38,0 -72,13 -99,40 -27,26 -40,70 -40,130l0 0z"/>
  <polygon class="fil0" points="749,995 749,588 804,588 1018,907 1018,588 1070,588 1070,995 1016,995 802,676 802,995 "/>
  <polygon class="fil0" points="1404,585 1087,585 1087,653 1198,653 1198,995 1293,995 1293,653 1404,653 "/>
  <path class="fil0" d="M1511 839c15,3 34,3 48,3l82 153 92 0 -90 -162c46,-15 76,-48 76,-122 0,-109 -72,-128 -160,-128 -46,0 -94,7 -128,13l0 399 80 0 0 -156 0 0zm0 -186c17,-2 36,-5 50,-5 59,0 78,19 78,63 0,53 -29,65 -78,65 -16,0 -33,0 -50,-2l0 -121z"/>
  <path class="fil0" d="M2401 930l-105 0c-46,0 -55,-11 -55,-57l0 -285 -82 0 0 308c0,97 68,101 139,101 25,0 73,-2 103,-4l0 -63 0 0z"/>
  <path class="fil1" d="M445 4l-116 0 0 340c0,59 -27,84 -100,84 -76,0 -103,-25 -103,-84l0 -340 -116 0 0 334c0,138 87,174 219,174 132,0 216,-36 216,-174l0 -334z"/>
  <path id="_1" class="fil1" d="M879 82c44,0 91,6 128,12l11 -77c-42,-9 -105,-17 -166,-17 -134,0 -208,36 -208,143 0,96 61,124 166,151 53,14 97,25 97,71 0,51 -38,63 -99,63 -46,0 -111,-6 -153,-10l-11 79c46,9 101,15 168,15 137,0 214,-40 214,-149 0,-92 -48,-130 -157,-155 -67,-15 -107,-23 -107,-74 0,-50 71,-52 117,-52l0 0z"/>
  <path id="_2" class="fil1" d="M1582 6c-40,0 -115,-2 -157,-2 -105,0 -202,4 -202,122l0 260c0,118 97,124 202,124 40,0 117,-2 157,-4l0 -80 -159 0c-69,0 -82,-13 -82,-67l0 -65 231 0 0 -82 -231 0 0 -57c0,-56 13,-69 82,-69l159 0 0 -80 0 0z"/>
  <path id="_3" class="fil1" d="M1916 317c21,0 48,2 71,2l120 189 134 0 -132 -202c69,-16 111,-58 111,-149 0,-134 -105,-157 -233,-157 -69,0 -138,6 -186,15l0 493 115 0 0 -191 0 0zm0 -233c25,-2 52,-4 76,-4 83,0 113,23 113,77 0,65 -44,80 -116,80 -25,0 -48,0 -73,-2l0 -151z"/>
 </g>
</svg>
