<?xml version="1.0" encoding="UTF-8"?>
<!DOCTYPE svg PUBLIC "-//W3C//DTD SVG 1.1//EN" "http://www.w3.org/Graphics/SVG/1.1/DTD/svg11.dtd">
<!-- Creator: CorelDRAW X7 -->
<svg xmlns="http://www.w3.org/2000/svg" xml:space="preserve" width="9.9mm" height="9.9mm" version="1.1" style="shape-rendering:geometricPrecision; text-rendering:geometricPrecision; image-rendering:optimizeQuality; fill-rule:evenodd; clip-rule:evenodd"
viewBox="0 0 739 739"
 xmlns:xlink="http://www.w3.org/1999/xlink">
 <defs>
  <style type="text/css">
   <![CDATA[
    .fil1 {fill:#2994AC;fill-rule:nonzero}
    .fil0 {fill:#2C323E;fill-rule:nonzero}
   ]]>
  </style>
 </defs>
 <g id="Capa_x0020_1">
  <metadata id="CorelCorpID_0Corel-Layer"/>
  <path class="fil0" d="M672 459l-38 -7c-15,0 -26,3 -30,15 -11,30 -30,56 -52,78 -8,11 -8,22 -4,34l23 33 -53 34 -22 -30c-4,-11 -19,-15 -30,-11 -30,11 -60,18 -94,18 -11,0 -23,12 -23,23l-7 37 -64 -11 8 -37c4,-15 -4,-26 -15,-30 -30,-11 -56,-30 -79,-53 -7,-7 -22,-7 -34,-3l-30 22 -37 -52 34 -22c7,-8 11,-19 7,-30 -11,-30 -19,-60 -19,-94 0,-11 -7,-22 -18,-22l-42 -8 12 -63 41 7c11,0 22,-3 26,-14 15,-30 30,-56 53,-79 7,-11 11,-22 3,-33l-22 -34 52 -34 23 30c7,11 19,15 30,11 30,-11 60,-18 93,-18 12,0 23,-11 27,-23l3 -37 64 11 -7 38c0,11 3,26 15,29 30,12 56,30 78,53 12,7 23,7 34,3l34 -22 33 52 -30 23c-11,7 -15,18 -11,30 11,29 19,59 19,93 0,11 11,22 22,22l38 8 -11 63 0 0zm45 -108l-42 -8c-3,-26 -7,-48 -15,-70l38 -27c11,-7 15,-22 4,-33l-64 -97c-4,-4 -7,-8 -15,-11 -7,0 -15,0 -19,3l-37 26c-19,-15 -38,-29 -60,-37l7 -45c4,-15 -7,-26 -18,-30l-117 -22c-3,0 -11,0 -18,4 -4,3 -8,11 -12,18l-7 41c-23,4 -49,8 -71,15l-23 -37c-3,-4 -11,-7 -18,-11 -8,0 -12,0 -19,4l-94 67c-7,4 -11,7 -11,15 -4,7 0,15 4,18l26 38c-19,18 -30,37 -41,59l-45 -7c-4,0 -12,0 -19,4 -4,3 -8,11 -11,15l-19 115c-4,12 4,27 19,30l45 8c0,22 7,48 15,71l-38 26c-7,3 -11,7 -11,15 0,7 0,15 4,18l63 97c4,4 12,8 19,8 4,4 11,0 19,-4l37 -22c15,15 38,26 60,37l-11 45c0,15 8,26 23,30l112 22c0,0 4,0 4,0 15,0 22,-7 26,-22l7 -41c27,-4 49,-8 72,-15l26 37c4,4 7,8 15,8 7,3 15,0 19,-4l97 -64c11,-7 15,-22 7,-33l-26 -38c15,-18 26,-41 38,-59l45 7c15,4 26,-7 30,-22l22 -112c0,-8 0,-15 -4,-19 -3,-7 -11,-11 -18,-11l0 0z"/>
  <path class="fil1" d="M500 396c-8,34 -26,64 -57,82 -30,23 -64,30 -97,23l0 0c-38,-8 -68,-26 -87,-56 -23,-30 -26,-64 -23,-102 8,-33 27,-63 57,-86 23,-15 49,-22 75,-22 8,0 19,3 27,3 71,15 120,83 105,158zm-98 -210c-49,-8 -98,4 -135,30 -42,30 -72,71 -79,120 -12,49 0,97 30,139 26,41 67,67 116,75l0 0c12,3 23,3 34,3 87,0 166,-60 181,-150 22,-101 -45,-195 -147,-217l0 0z"/>
 </g>
</svg>
