<?xml version="1.0" encoding="UTF-8"?>
<!DOCTYPE svg PUBLIC "-//W3C//DTD SVG 1.1//EN" "http://www.w3.org/Graphics/SVG/1.1/DTD/svg11.dtd">
<!-- Creator: CorelDRAW X7 -->
<svg xmlns="http://www.w3.org/2000/svg" xml:space="preserve" width="9.9226mm" height="9.947mm" version="1.1" style="shape-rendering:geometricPrecision; text-rendering:geometricPrecision; image-rendering:optimizeQuality; fill-rule:evenodd; clip-rule:evenodd"
viewBox="0 0 27 27"
 xmlns:xlink="http://www.w3.org/1999/xlink">
 <defs>
  <style type="text/css">
   <![CDATA[
    .fil1 {fill:#FEFEFE;fill-rule:nonzero}
    .fil0 {fill:#D2D3D5;fill-rule:nonzero}
   ]]>
  </style>
 </defs>
 <g id="Capa_x0020_1">
  <metadata id="CorelCorpID_0Corel-Layer"/>
  <path class="fil0" d="M24 17l-1 -1c-1,0 -1,0 -1,1 -1,1 -1,2 -2,3 0,0 -1,0 0,1l1 1 -2 1 -1 -1c0,0 -1,0 -1,0 -1,0 -2,0 -4,0 0,0 0,1 0,1l-1 2 -2 -1 0 -1c0,-1 0,-1 0,-1 -1,-1 -2,-1 -3,-2 0,0 -1,0 -1,0l-1 1 -2 -2 1 -1c1,0 1,-1 1,-1 -1,-1 -1,-2 -1,-4 0,0 0,0 -1,0l-1 -1 0 -2 2 0c0,0 1,0 1,0 0,-1 1,-2 2,-3 0,0 0,-1 0,-1l-1 -1 2 -2 1 1c0,1 0,1 1,1 1,-1 2,-1 3,-1 1,0 1,0 1,-1l0 -1 2 0 0 2c0,0 0,1 1,1 1,0 2,1 3,2 0,0 0,0 1,0l1 -1 1 2 -1 1c0,0 0,0 0,1 0,1 0,2 0,3 0,1 1,1 1,1l2 0 -1 3zm2 -4l-2 -1c0,-1 0,-1 0,-2l1 -1c0,0 1,-1 0,-1l-2 -4c0,0 0,0 -1,0 0,0 0,0 0,0l-2 1c0,-1 -1,-1 -2,-2l0 -1c1,-1 0,-1 0,-1l-4 -1c-1,0 -1,0 -1,0 0,0 0,1 0,1l-1 1c-1,0 -1,1 -2,1l-1 -1c0,-1 0,-1 -1,-1 0,0 0,0 0,0l-4 3c0,0 0,0 0,0 0,0 0,1 0,1l1 1c-1,1 -1,2 -2,2l-1 0c0,0 -1,0 -1,0 0,0 0,1 0,1l-1 4c0,0 0,1 1,1l1 0c0,1 1,2 1,3l-1 1c-1,0 -1,0 -1,0 0,1 0,1 0,1l3 3c0,1 0,1 0,1 0,0 1,0 1,0l1 -1c1,0 2,1 2,1l0 2c0,0 0,1 1,1l4 1c0,0 0,0 0,0 0,0 1,-1 1,-1l0 -2c1,0 2,0 3,0l1 1c0,0 0,0 0,0 0,0 1,0 1,0l3 -2c1,0 1,-1 1,-1l-1 -2c0,0 1,-1 1,-2l2 1c0,0 1,-1 1,-1l1 -4c0,-1 -1,-1 -1,-1 0,0 0,0 0,0z"/>
  <path class="fil1" d="M18 14c0,1 -1,3 -2,3 -1,1 -2,1 -4,1l0 0c-1,0 -2,-1 -3,-2 0,-1 -1,-2 0,-4 0,-1 1,-2 2,-3 0,0 1,0 2,0 1,0 1,0 1,0 3,0 4,3 4,5zm-4 -7c-1,-1 -3,0 -4,1 -2,1 -3,2 -3,4 -1,2 0,4 1,5 1,1 2,2 4,3l0 0c0,0 1,0 1,0 3,0 6,-2 7,-5 0,-4 -2,-8 -6,-8z"/>
 </g>
</svg>
