<?xml version="1.0" encoding="iso-8859-1"?>
<!-- Generator: Adobe Illustrator 19.0.0, SVG Export Plug-In . SVG Version: 6.00 Build 0)  -->
<svg version="1.1" id="Capa_1" xmlns="http://www.w3.org/2000/svg" xmlns:xlink="http://www.w3.org/1999/xlink" x="0px" y="0px"
	 viewBox="0 0 498.435 498.435" style="enable-background:new 0 0 498.435 498.435;" xml:space="preserve">
<path style="fill:#FFDB6F;" d="M54.982,402.991C162.021,536.716,365.967,524.8,457.429,383.504
	c35.281-54.505,2.312-121.856-53.481-137.511c-36.212-10.162-69.244-29.386-95.853-55.979
	c-26.562-26.546-45.94-59.485-55.994-95.666c-15.593-56.103-83.503-89.01-138.256-53.31
	C-12.416,123.361-32.663,293.516,54.982,402.991z"/>
<path style="opacity:0.85;fill:#FCD26B;enable-background:new    ;" d="M394.826,368.33l-106.977,106.93
	c-11.217,11.217-29.634,10.861-40.386-1.086c-10.085-11.202-8.502-28.719,2.141-39.377l110.39-110.39
	c10.302-10.907,10.178-28.144-0.512-38.819c-10.876-10.861-28.563-10.876-39.44,0L190.631,415
	c-9.107,9.107-24.017,9.107-32.985-0.124l-1.396-1.396c-9.604-8.347-9.992-23.133-1.008-32.116l108.87-108.87
	c10.752-10.752,12.257-28.191,2.281-39.44c-10.876-11.885-29.2-12.257-40.448-1.008l-84.868,84.868
	c-9.107,9.107-24.017,9.107-33.125,0l-1.008-1.272l-0.248-0.248c-9.728-9.48-9.728-25.166-0.124-34.769l75.373-75.373
	c10.752-10.752,12.257-28.191,2.157-39.564c-10.752-11.76-29.2-12.257-40.448-1.008l-80.182,80.182
	c-9.48,9.48-24.529,8.595-33.885-1.008c-0.124-0.124-0.124-0.124-0.248-0.248c-0.124-0.124-0.124-0.124-0.248-0.248
	c-9.604-9.356-10.488-24.405-1.008-33.885l84.139-84.17c10.612-10.612,12.133-28.067,2.157-39.315
	c-10.892-11.885-29.215-12.272-40.464-1.024L35.402,123.47C-97.005,349.479,169.034,601.073,387.146,454.641l45.987-45.987
	c10.612-10.612,12.133-28.067,2.157-39.315C424.398,357.454,406.074,357.082,394.826,368.33z"/>
<circle style="fill:#0F71C7;" cx="137.29" cy="135.106" r="48.097"/>
<circle style="fill:#177ECC;" cx="124.583" cy="122.399" r="22.745"/>
<circle style="fill:#EC9821;" cx="76.408" cy="248.507" r="48.097"/>
<circle style="fill:#3AA2EB;" cx="137.29" cy="372.007" r="48.097"/>
<circle style="fill:#ED6262;" cx="279.703" cy="415.698" r="48.097"/>
<circle style="fill:#E86E3E;" cx="393.895" cy="334.864" r="48.097"/>
<circle style="fill:#F79C2F;" cx="64.089" cy="234.372" r="22.745"/>
<circle style="fill:#40ABED;" cx="126.724" cy="356.601" r="22.761"/>
<circle style="fill:#F27070;" cx="266.469" cy="405.644" r="22.745"/>
<circle style="fill:#ED784F;" cx="383.732" cy="326.61" r="22.761"/>
<path style="fill:#ED6262;" d="M255.624,194.297c-10.535,1.396-20.961,6.113-29.324,14.476
	c-32.985,32.985-0.698,43.675-33.125,96.768c0,0,77.715-14.072,96.768-33.125c8.363-8.363,13.064-18.789,14.476-29.324
	L255.624,194.297z"/>
<path style="fill:#E95353;" d="M289.943,272.4c8.363-8.363,13.064-18.789,14.476-29.324l-32.628-32.628
	c-8.114,5.508-21.132,17.051-21.132,35.126c0.016,26.159-57.484,59.951-57.484,59.951S270.891,291.453,289.943,272.4z"/>
<polygon style="fill:#777777;" points="453.876,25.43 257.734,196.391 302.309,240.966 473.286,44.824 "/>
<g>
	<path style="fill:#CACACA;" d="M495.085,3.615c-4.251-4.251-11.062-4.484-15.577-0.528l-27.819,24.25l19.689,19.689l24.25-27.819
		C499.568,14.678,499.336,7.867,495.085,3.615z"/>
	<path style="fill:#CACACA;" d="M314.007,234.124l-49.416-49.416c-3.196-3.196-8.378-3.196-11.559,0
		c-3.196,3.196-3.196,8.378,0,11.559l49.416,49.416c3.196,3.196,8.363,3.196,11.559,0
		C317.188,242.487,317.188,237.305,314.007,234.124z"/>
</g>
<g>
</g>
<g>
</g>
<g>
</g>
<g>
</g>
<g>
</g>
<g>
</g>
<g>
</g>
<g>
</g>
<g>
</g>
<g>
</g>
<g>
</g>
<g>
</g>
<g>
</g>
<g>
</g>
<g>
</g>
</svg>
